<svg version="1.1" xmlns="http://www.w3.org/2000/svg" xmlns:xlink="http://www.w3.org/1999/xlink" width="800px" height="800px" viewBox="0,0,256,256"><g fill="#ffb700" fill-rule="evenodd" stroke="none" stroke-width="1" stroke-linecap="butt" stroke-linejoin="miter" stroke-miterlimit="10" stroke-dasharray="" stroke-dashoffset="0" font-family="none" font-weight="none" font-size="none" text-anchor="none" style="mix-blend-mode: normal"><g transform="scale(10.66667,10.66667)"><path d="M4,5c-0.55228,0 -1,0.44772 -1,1c0,0.55228 0.44772,1 1,1h16c0.5523,0 1,-0.44772 1,-1c0,-0.55228 -0.4477,-1 -1,-1zM7,12c0,-0.5523 0.44772,-1 1,-1h12c0.5523,0 1,0.4477 1,1c0,0.5523 -0.4477,1 -1,1h-12c-0.55228,0 -1,-0.4477 -1,-1zM13,18c0,-0.5523 0.4477,-1 1,-1h6c0.5523,0 1,0.4477 1,1c0,0.5523 -0.4477,1 -1,1h-6c-0.5523,0 -1,-0.4477 -1,-1z"></path></g></g></svg>