<svg version="1.1" xmlns="http://www.w3.org/2000/svg" xmlns:xlink="http://www.w3.org/1999/xlink" width="129px" height="129px" viewBox="0,0,256,256"><g fill="#ffffff" fill-rule="nonzero" stroke="none" stroke-width="1" stroke-linecap="butt" stroke-linejoin="miter" stroke-miterlimit="10" stroke-dasharray="" stroke-dashoffset="0" font-family="none" font-weight="none" font-size="none" text-anchor="none" style="mix-blend-mode: normal"><g transform="scale(1.9845,1.9845)"><g><g><path d="M64.3,71.6c18,0 32.6,-14.6 32.6,-32.6c0,-18 -14.6,-32.5 -32.6,-32.5c-18,0 -32.6,14.6 -32.6,32.5c0,17.9 14.6,32.6 32.6,32.6zM64.3,15c13.2,0 24,10.8 24,24c0,13.2 -10.8,24 -24,24c-13.2,0 -24,-10.8 -24,-24c0,-13.2 10.8,-24 24,-24z"></path><path d="M7.9,122.5h113.2c2.4,0 4.3,-1.9 4.3,-4.3c0,-22.5 -18.3,-40.9 -40.9,-40.9h-40c-22.5,0 -40.9,18.3 -40.9,40.9c0,2.4 1.9,4.3 4.3,4.3zM44.5,85.9h40c16.4,0 29.9,12.2 32,28h-104c2.1,-15.7 15.6,-28 32,-28z"></path></g></g></g></g></svg>